<svg viewBox="0 0 512 512" xmlns="http://www.w3.org/2000/svg">
  <path d="M256 73.143c-35.657 0-64.571 28.914-64.571 64.571 0 35.657 28.914 64.571 64.571 64.571s64.571-28.914 64.571-64.571c0-35.657-28.914-64.571-64.571-64.571z" fill="#7B2D8E"/>
  <path d="M150.857 146.286c-35.657 0-64.571 28.914-64.571 64.571 0 35.657 28.914 64.571 64.571 64.571 35.657 0 64.571-28.914 64.571-64.571 0-35.657-28.914-64.571-64.571-64.571z" fill="#7B2D8E"/>
  <path d="M361.143 146.286c-35.657 0-64.571 28.914-64.571 64.571 0 35.657 28.914 64.571 64.571 64.571 35.657 0 64.571-28.914 64.571-64.571 0-35.657-28.914-64.571-64.571-64.571z" fill="#7B2D8E"/>
  <path d="M73.143 219.429c-35.657 0-64.571 28.914-64.571 64.571 0 35.657 28.914 64.571 64.571 64.571 35.657 0 64.571-28.914 64.571-64.571 0-35.657-28.914-64.571-64.571-64.571z" fill="#7B2D8E"/>
  <path d="M438.857 219.429c-35.657 0-64.571 28.914-64.571 64.571 0 35.657 28.914 64.571 64.571 64.571 35.657 0 64.571-28.914 64.571-64.571 0-35.657-28.914-64.571-64.571-64.571z" fill="#7B2D8E"/>
  <rect x="188.571" y="284" width="134.857" height="154.857" fill="#7B2D8E"/>
  <path d="M188.571 439.143h35.714V512h-35.714z" fill="#7B2D8E"/>
  <path d="M287.714 439.143h35.714V512h-35.714z" fill="#7B2D8E"/>
  <circle cx="206.286" cy="475.429" r="16.571" fill="white"/>
  <circle cx="305.714" cy="475.429" r="16.571" fill="white"/>
</svg>